# xmcd CD database file generated by OrangeCD 5.2
#
# Track frame offsets:
#	150
#	15030
#	33361
#	49516
#	64501
#	75056
#	88176
#	91939
#	104129
#	115130
#	125960
#	136046
#	144257
#	153394
#	168816
#	179596
#	193782
#	209164
#	223205
#
# Disc length: 3404 seconds
#
# Revision: 0
# Processed by: cddbd v1.5.1PL0 Copyright (c) Steve Scherf et al.
# Submitted via: OrangeCD 5.2
#
DISCID=020d4a13
DTITLE=Johnny Cash - Live In 1971 TV Studio Sweden
DYEAR=1971
DGENRE=Country
TTITLE0=A Boy Named Sue
TTITLE1=Sunday Morning Coming Down
TTITLE2=I Walk The Line
TTITLE3=Carl Perkins - Blue Suede Shoes
TTITLE4=Carl Perkins - Matchbox
TTITLE5=Me And Bobby McGee
TTITLE6=Guess Things Happen That Way
TTITLE7=The Statler Brothers - This Bed Of Roses
TTITLE8=The Statler Brothers - Flowers On The Wall
TTITLE9=Folsom Prison Blues
TTITLE10=Johnny Cash and June Carter Cash - Darling Companion
TTITLE11=Johnny Cash and June Carter Cash - If I Were A Carpenter
TTITLE12=Johnny Cash and June Carter Cash - Help Me Make It Through The Night
TTITLE13=Man In Black
TTITLE14=The Carter Family - Instrumental
TTITLE15=Johnny Cash and The Carter Family - Dear Mama
TTITLE16=Johnny Cash and The Carter Family - No Need To Worry
TTITLE17=Johnny Cash and The Carter Family - Papa Was A Good Man
TTITLE18=Johnny Cash and The Carter Family - Children Go Where I Send Thee
EXTD=
EXTT0=
EXTT1=
EXTT2=
EXTT3=
EXTT4=
EXTT5=
EXTT6=
EXTT7=
EXTT8=
EXTT9=
EXTT10=
EXTT11=
EXTT12=
EXTT13=
EXTT14=
EXTT15=
EXTT16=
EXTT17=
EXTT18=
PLAYORDER=
